<svg xmlns="http://www.w3.org/2000/svg" version="1.1" xmlns:xlink="http://www.w3.org/1999/xlink" xmlns:svgjs="http://svgjs.com/svgjs" width="24px" height="24px"><svg width="24px" height="24px" viewBox="0 0 24 24" style="enable-background:new 0 0 24 24;" version="1.1" xml:space="preserve" xmlns="http://www.w3.org/2000/svg" xmlns:xlink="http://www.w3.org/1999/xlink"><style type="text/css">
	.st0{opacity:0.2;fill:none;stroke:#000000;stroke-width:5.000000e-02;stroke-miterlimit:10;}
</style><g id="SvgjsG1001"></g><g id="SvgjsG1000"><path d="M17.9,12.6c0-0.1-0.1-0.2-0.2-0.3c0,0,0,0-0.1-0.1c-0.1-0.1-0.1-0.1-0.2-0.2c0,0,0,0,0,0c0,0,0,0,0,0   C17.3,12,17.2,12,17,12c0,0,0,0-0.1,0h-7c-0.4,0-0.8,0.2-0.9,0.6L8,15.1V9.9c0.5,0.4,1,0.8,1.6,1C9.7,11,9.8,11,10,11   c0.4,0,0.7-0.2,0.9-0.6c0.2-0.5,0-1.1-0.4-1.3C9.5,8.6,8.7,7.9,8.2,7c0.4,0.3,0.9,0.6,1.4,0.9C9.7,8,9.8,8,10,8   c0.4,0,0.7-0.2,0.9-0.6c0.2-0.5,0-1.1-0.4-1.3c-1.1-0.5-2-1.5-2.6-2.6c-0.3-0.7-1.5-0.7-1.8,0c-0.5,1.1-1.5,2-2.6,2.6   C3.1,6.4,2.9,7,3.1,7.4C3.4,7.9,4,8.1,4.4,7.9c0.5-0.2,1-0.5,1.4-0.9C5.3,7.9,4.5,8.6,3.6,9.1C3.1,9.4,2.9,10,3.1,10.4   c0.2,0.5,0.8,0.7,1.3,0.4c0.6-0.3,1.1-0.6,1.6-1V19H4c-0.6,0-1,0.4-1,1s0.4,1,1,1h3h13c0.3,0,0.6-0.2,0.8-0.4   c0.2-0.3,0.2-0.6,0.1-0.9L17.9,12.6z M13.3,19H8.5l2.1-5h4.8L13.3,19z M15.5,19l1.5-3.5l1.5,3.5H15.5z"></path></g></svg><style>@media (prefers-color-scheme: light) { :root { filter: none; } }
@media (prefers-color-scheme: dark) { :root { filter: contrast(0.425531914893617) brightness(4); } }
</style></svg>